<svg xmlns="http://www.w3.org/2000/svg" viewBox="0 0 360 360" role="img" aria-label="ADscan">
  <g transform="translate(38,92)"><path fill="#1A1A1A" fill-rule="evenodd" d="M56.19,175.90C57.39,175.26 60.88,169.27 64.63,161.41L71.02,148.03 L103.76,147.76L136.50,147.50 L136.82,145.23C137.15,142.91 124.74,117.14 122.63,115.77C122.01,115.36 113.74,115.02 104.25,115.02C89.92,115.00 87.00,114.76 87.00,113.56C87.00,111.36 110.51,60.84 111.57,60.76C112.79,60.66 117.42,69.89 141.00,119.50C157.80,154.84 168.18,175.02 170.07,176.04C171.55,176.83 182.24,177.03 206.33,176.73C236.70,176.35 241.28,176.08 247.50,174.30C263.65,169.68 274.65,163.38 285.52,152.52C308.46,129.60 312.95,94.09 296.75,63.68C288.51,48.21 271.03,33.92 251.63,26.78C237.39,21.54 232.24,21.07 188.72,21.03C154.68,21.01 148.86,21.21 148.38,22.47C148.07,23.27 150.33,29.35 153.41,35.97C156.48,42.60 159.00,48.43 159.00,48.94C159.00,49.44 159.71,50.56 160.57,51.43C161.94,52.79 166.46,53.00 194.93,53.00C212.97,53.00 229.94,53.42 232.65,53.93C256.22,58.40 271.37,75.07 272.74,98.06C273.85,116.57 265.09,132.82 249.89,140.42C239.94,145.40 235.13,146.08 212.17,145.77L191.87,145.50 L190.45,143.00C189.67,141.62 176.23,114.00 160.58,81.62C144.93,49.23 131.71,22.31 131.19,21.79C130.66,21.26 123.32,21.00 114.21,21.18C98.21,21.50 98.15,21.51 93.88,24.51C88.50,28.30 89.29,26.77 53.29,103.00C46.41,117.58 36.33,138.83 30.89,150.23C25.45,161.62 21.00,171.77 21.00,172.78C21.00,176.56 22.87,177.00 38.77,177.00C48.02,177.00 54.95,176.56 56.19,175.90Z"/></g>
  <circle cx="305" cy="262" r="20" fill="#0E6E78"/>
</svg>
